<?xml version="1.0" encoding="UTF-8"?>
<svg version="1.1" xmlns="http://www.w3.org/2000/svg" width="213" height="236">
<path d="M0 0 C70.29 0 140.58 0 213 0 C213 77.88 213 155.76 213 236 C142.71 236 72.42 236 0 236 C0 158.12 0 80.24 0 0 Z " fill="#659AD2" transform="translate(0,0)"/>
<path d="M0 0 C2.92793364 2.31077397 3.92037408 3.47822726 4.49219131 7.22523117 C4.48666056 9.15546568 4.48666056 9.15546568 4.48101807 11.12469482 C4.48443577 11.84273419 4.48785347 12.56077355 4.49137473 13.30057168 C4.49796425 15.70697197 4.47596126 18.11225716 4.45410156 20.51855469 C4.45297331 22.24326043 4.45360651 23.9679681 4.45587158 25.69267273 C4.45702053 30.37633872 4.43348203 35.05959602 4.40557575 39.74316692 C4.38059218 44.63720828 4.3782225 49.53125872 4.37347412 54.425354 C4.36103539 63.69366992 4.32820162 72.9617974 4.28807616 82.2300303 C4.24338638 92.78128628 4.22137844 103.33255119 4.20129442 113.88387823 C4.1594698 135.58935738 4.08910028 157.29466683 4 179 C-9.96165139 179.28252514 -23.92284882 179.49218635 -37.88678932 179.62174606 C-44.37329885 179.68397747 -50.85786843 179.7681711 -57.34326172 179.90527344 C-63.61992382 180.03710992 -69.89473854 180.10770797 -76.1726799 180.13852692 C-78.54954441 180.16044492 -80.92632497 180.20323687 -83.30238724 180.26876068 C-100.23691236 180.71654132 -111.61018614 177.67810193 -125.84982491 168.39123917 C-128.59991122 166.61183627 -131.4238116 165.0407506 -134.30078125 163.4765625 C-135.97227778 162.52766678 -137.64287608 161.57718679 -139.3125 160.625 C-141.23541848 159.53339849 -143.15860556 158.44227003 -145.08203125 157.3515625 C-146.04963379 156.80274414 -147.01723633 156.25392578 -148.01416016 155.68847656 C-153.16637151 152.77492843 -158.33381832 149.88867792 -163.5 147 C-165.58208147 145.83342296 -167.66411281 144.66675645 -169.74609375 143.5 C-173.96290427 141.13758195 -178.18509044 138.78511709 -182.41015625 136.4375 C-184.46104811 135.29186465 -186.51183351 134.14603871 -188.5625 133 C-189.49578125 132.484375 -190.4290625 131.96875 -191.390625 131.4375 C-196.92803838 128.33331498 -202.03318336 124.95591821 -207 121 C-205.6565741 116.9697223 -203.96710899 116.58204732 -200.27734375 114.56640625 C-199.69843887 114.24719711 -199.119534 113.92798798 -198.52308655 113.59910583 C-196.66590762 112.57807439 -194.80184409 111.57037717 -192.9375 110.5625 C-191.70853155 109.88819443 -190.48001052 109.21307275 -189.25195312 108.53710938 C-183.22847292 105.232576 -177.17444499 102.0139925 -171 99 C-170.59910156 99.60585937 -170.19820312 100.21171875 -169.78515625 100.8359375 C-156.95935089 119.74018576 -139.77429349 133.55025061 -117 138 C-112.44965044 138.44509429 -107.94509343 138.52472689 -103.375 138.5 C-102.14386475 138.49427979 -100.91272949 138.48855957 -99.64428711 138.48266602 C-78.91634334 138.07847724 -60.89827736 130.08525029 -46.265625 115.22265625 C-38.98127137 108.14532729 -38.98127137 108.14532729 -36 99 C-39.89424074 96.89696496 -43.79036394 94.79747218 -47.68823242 92.70117188 C-49.01264264 91.98826429 -50.3365432 91.27440902 -51.65991211 90.55957031 C-53.56749843 89.52937326 -55.47692099 88.50265288 -57.38671875 87.4765625 C-58.53358154 86.85861816 -59.68044434 86.24067383 -60.86206055 85.60400391 C-63.54047027 84.23489538 -66.18639118 83.05539135 -69 82 C-69.4125 82.50789063 -69.825 83.01578125 -70.25 83.5390625 C-78.23770524 93.06012187 -86.61314967 99.01366035 -99.30859375 100.34765625 C-112.46629249 100.70410745 -122.11205456 96.57610987 -131.75 87.75 C-138.57567058 80.57591932 -141.88774658 71.07328631 -142.375 61.3125 C-142.09662221 50.65226828 -138.06098666 40.92383635 -131 33 C-121.29701769 23.99703245 -111.18646305 21.3930838 -98.15234375 21.65625 C-87.68511039 22.23229586 -78.40865426 28.15048031 -71.5 35.75 C-70 38 -70 38 -70 40 C-59.24518636 35.03100382 -49.20991309 28.87422195 -39.04980469 22.81152344 C-33.84279052 19.71866039 -28.60883912 16.672177 -23.375 13.625 C-21.93785645 12.78775391 -21.93785645 12.78775391 -20.47167969 11.93359375 C-18.60982583 10.84906871 -16.7478494 9.76475405 -14.88574219 8.68066406 C-9.92220768 5.78988812 -4.96116962 2.89483213 0 0 Z " fill="#00599C" transform="translate(209,57)"/>
<path d="M0 0 C6.88412611 6.03140958 13.64406013 12.22591355 17.2734375 20.765625 C10.51673149 25.42960243 3.54370607 29.60199494 -3.6015625 33.640625 C-4.6328125 34.23359375 -5.6640625 34.8265625 -6.7265625 35.4375 C-7.71398437 35.99695313 -8.70140625 36.55640625 -9.71875 37.1328125 C-10.60933105 37.63925293 -11.49991211 38.14569336 -12.41748047 38.66748047 C-14.7265625 39.765625 -14.7265625 39.765625 -17.7265625 39.765625 C-18.87251876 38.08039521 -20.01793324 36.39479361 -21.16015625 34.70703125 C-24.0467438 31.12939032 -27.7510162 28.98349408 -31.7265625 26.765625 C-32.46648437 26.34925781 -33.20640625 25.93289062 -33.96875 25.50390625 C-42.52814833 21.39712423 -53.6619053 21.21958886 -62.7265625 23.953125 C-66.3694836 25.41586579 -69.65057373 27.39373318 -72.90234375 29.58203125 C-74.7265625 30.765625 -74.7265625 30.765625 -76.83203125 31.66796875 C-79.21115315 33.04638783 -79.65408602 34.27246539 -80.7265625 36.765625 C-81.53142765 37.95831297 -82.3442535 39.14565906 -83.1640625 40.328125 C-88.61598602 49.02216872 -90.16535979 59.03498003 -88.03515625 69 C-85.07897483 79.7362572 -79.79379558 87.27018894 -70.7265625 93.765625 C-61.28666647 98.97493218 -51.08903136 100.32170236 -40.4921875 98.08203125 C-29.98298943 94.86792372 -23.55516003 89.1733357 -16.7265625 80.765625 C-10.71737549 83.04259838 -5.11120065 86.10515501 0.55859375 89.10546875 C1.87263115 89.79775486 3.18973251 90.48425502 4.50976562 91.16503906 C6.4224687 92.15178111 8.32516214 93.15574795 10.2265625 94.1640625 C11.36254883 94.75880371 12.49853516 95.35354492 13.66894531 95.96630859 C16.2734375 97.765625 16.2734375 97.765625 17.23486328 99.83569336 C17.35835068 106.0139711 9.15786003 113.10235165 5.1484375 117.390625 C-3.54098665 125.73606162 -14.32429021 131.96023815 -25.7265625 135.765625 C-26.49540771 136.02311523 -27.26425293 136.28060547 -28.05639648 136.54589844 C-35.54655361 138.84299832 -42.60738846 139.3077253 -50.4140625 139.265625 C-51.64777588 139.25990479 -52.88148926 139.25418457 -54.15258789 139.24829102 C-73.29849009 138.87455898 -89.40676415 131.48870248 -103.7265625 118.765625 C-104.36207031 118.20101562 -104.99757813 117.63640625 -105.65234375 117.0546875 C-119.27563471 104.18656788 -128.21231991 84.86582609 -128.96484375 66.1484375 C-129.43850787 43.94331743 -123.99460328 24.45465175 -108.7265625 7.765625 C-108.14777344 7.0953125 -107.56898437 6.425 -106.97265625 5.734375 C-78.939644 -24.78104222 -31.31990486 -25.66616846 0 0 Z " fill="#FDFEFE" transform="translate(156.7265625,57.234375)"/>
<path d="M0 0 C2.66304065 2.46638534 4.61900527 5.21272765 6.6875 8.1875 C18.29220116 24.15707971 35.57346772 35.07597159 55 39 C59.54998698 39.44940684 64.0549154 39.52472685 68.625 39.5 C69.85613525 39.49427979 71.08727051 39.48855957 72.35571289 39.48266602 C93.03198469 39.07948482 111.06455987 31.12794722 125.6640625 16.29296875 C130.18360056 11.42013347 134.19955028 6.44170589 138 1 C146.98918645 5.32720837 155.81971384 9.89189103 164.5 14.8125 C165.34280518 15.28018799 166.18561035 15.74787598 167.05395508 16.22973633 C167.8302124 16.67599365 168.60646973 17.12225098 169.40625 17.58203125 C170.10041016 17.97624268 170.79457031 18.3704541 171.50976562 18.77661133 C172.00154297 19.18032959 172.49332031 19.58404785 173 20 C173 20.99 173 21.98 173 23 C166.84126267 28.48133538 158.5624149 32.12854769 151.375 36.0625 C148.95734889 37.39405065 146.54125961 38.72842639 144.125 40.0625 C143.52078217 40.39560684 142.91656433 40.72871368 142.29403687 41.07191467 C136.63175838 44.19581679 130.99989705 47.37192163 125.375 50.5625 C116.18169021 55.77351743 106.97220527 60.95487213 97.73779297 66.09277344 C93.33265485 68.54805061 88.94022524 71.00774209 84.62890625 73.625 C84.00056885 74.00229248 83.37223145 74.37958496 82.72485352 74.76831055 C81.16274598 75.71397706 79.61191412 76.67820782 78.0625 77.64453125 C73.16869732 79.8105383 68.78549803 80.97672941 63.58886719 79.15454102 C60.93687919 77.8403348 58.41358884 76.39672077 55.875 74.875 C54.92343018 74.33020996 53.97186035 73.78541992 52.99145508 73.22412109 C50.98682887 72.07472542 48.98761554 70.91584283 46.99365234 69.74804688 C43.19136746 67.52782507 39.35500629 65.37142262 35.51611328 63.21533203 C32.64577614 61.60154158 29.78134844 59.97766152 26.91796875 58.3515625 C20.79205389 54.87698032 14.64699833 51.43710297 8.5 48 C6.41791853 46.83342296 4.33588719 45.66675645 2.25390625 44.5 C-1.96290427 42.13758195 -6.18509044 39.78511709 -10.41015625 37.4375 C-12.46104811 36.29186465 -14.51183351 35.14603871 -16.5625 34 C-17.49578125 33.484375 -18.4290625 32.96875 -19.390625 32.4375 C-24.92803838 29.33331498 -30.03318336 25.95591821 -35 22 C-33.65339476 17.96018427 -31.9454731 17.57752596 -28.2421875 15.56640625 C-27.66091095 15.24719711 -27.0796344 14.92798798 -26.48074341 14.59910583 C-24.61685088 13.5780257 -22.74622685 12.57006518 -20.875 11.5625 C-19.6375436 10.88824491 -18.40055862 10.21312387 -17.1640625 9.53710938 C-14.80894291 8.2503342 -12.45164908 6.96790289 -10.09277344 5.68798828 C-6.70088162 3.83674578 -3.3423211 1.93894296 0 0 Z " fill="#024482" transform="translate(37,156)"/>
<path d="M0 0 C0.33 0 0.66 0 1 0 C1 20.79 1 41.58 1 63 C-33.32 63 -67.64 63 -103 63 C-100.27713825 61.18475883 -97.54173483 59.59831065 -94.6796875 58.015625 C-93.59977539 57.41733887 -92.51986328 56.81905273 -91.40722656 56.20263672 C-90.83234497 55.88486267 -90.25746338 55.56708862 -89.66516113 55.23968506 C-86.60068861 53.54550088 -83.53877624 51.8466999 -80.4765625 50.1484375 C-79.84971558 49.80092438 -79.22286865 49.45341125 -78.57702637 49.09536743 C-61.61345618 39.68815246 -44.70798474 30.17574764 -27.8359375 20.60546875 C-24.8936934 18.93981816 -21.94700432 17.28221152 -19 15.625 C-17.08320827 14.54188796 -15.16653701 13.45856269 -13.25 12.375 C-12.3621582 11.87790527 -11.47431641 11.38081055 -10.55957031 10.86865234 C-9.74069336 10.40410645 -8.92181641 9.93956055 -8.078125 9.4609375 C-7.00159668 8.85451416 -7.00159668 8.85451416 -5.90332031 8.23583984 C-3.14163585 6.44265786 -1.31205108 4.99288981 -0.3125 1.8125 C-0.209375 1.214375 -0.10625 0.61625 0 0 Z " fill="#FDFEFE" transform="translate(212,173)"/>
<path d="M0 0 C2.31 1.98 4.62 3.96 7 6 C9.44094562 7.6538679 9.44094562 7.6538679 11.8359375 8.9375 C12.72216797 9.4325 13.60839844 9.9275 14.52148438 10.4375 C15.46314453 10.953125 16.40480469 11.46875 17.375 12 C18.37595703 12.556875 19.37691406 13.11375 20.40820312 13.6875 C22.52788233 14.86641531 24.64934189 16.04213459 26.77246094 17.21484375 C32.02726336 20.12128213 37.26218785 23.06309267 42.5 26 C44.60415501 27.17710418 46.70832165 28.35418756 48.8125 29.53125 C55.64839908 33.35935349 62.46741228 37.21702304 69.28540039 41.0769043 C80.50212914 47.42289104 91.75090914 53.71160879 103 60 C103 60.33 103 60.66 103 61 C69.01 61 35.02 61 0 61 C0 40.87 0 20.74 0 0 Z " fill="#FEFEFE" transform="translate(0,175)"/>
<path d="M0 0 C34.32 0 68.64 0 104 0 C104 20.13 104 40.26 104 61 C102.35 59.35 100.7 57.7 99 56 C96.76292606 54.40298578 96.76292606 54.40298578 94.41015625 53.09375 C93.53762207 52.5884375 92.66508789 52.083125 91.76611328 51.5625 C90.8532959 51.046875 89.94047852 50.53125 89 50 C88.09362793 49.484375 87.18725586 48.96875 86.25341797 48.4375 C83.32107857 46.780157 80.38050018 45.13833258 77.4375 43.5 C75.21742482 42.26045803 72.99737341 41.0208735 70.77734375 39.78125 C69.65183105 39.15347656 68.52631836 38.52570312 67.36669922 37.87890625 C63.10511426 35.50057719 58.84694605 33.11618333 54.58935547 30.73071289 C52.52752537 29.57563832 50.46534995 28.42117993 48.40283203 27.26733398 C43.0506709 24.27276244 37.70336423 21.2699701 32.36328125 18.25390625 C21.69776222 12.23883417 11.06094326 6.26334688 0 1 C0 0.67 0 0.34 0 0 Z " fill="#FEFEFE" transform="translate(109,0)"/>
<path d="M0 0 C33.66 0 67.32 0 102 0 C98.65622468 2.67502025 96.14685034 4.62009575 92.5078125 6.55859375 C91.65018311 7.01991699 90.79255371 7.48124023 89.90893555 7.95654297 C88.99023682 8.44525879 88.07153809 8.93397461 87.125 9.4375 C85.13330563 10.51021815 83.14244541 11.58448621 81.15234375 12.66015625 C80.13124512 13.21203613 79.11014648 13.76391602 78.05810547 14.33251953 C73.23800364 16.96075644 68.46140839 19.66399869 63.6875 22.375 C56.68619462 26.34789199 49.67851407 30.30826758 42.65234375 34.23706055 C40.56164897 35.40627578 38.4717952 36.57699619 36.3828125 37.74926758 C31.08420536 40.72225488 25.77614218 43.67567156 20.44921875 46.59765625 C18.36195382 47.75255835 16.2747133 48.90750458 14.1875 50.0625 C13.22070312 50.58650391 12.25390625 51.11050781 11.2578125 51.65039062 C10.36191406 52.14861328 9.46601563 52.64683594 8.54296875 53.16015625 C7.75946045 53.58949463 6.97595215 54.01883301 6.16870117 54.46118164 C3.40651439 56.27148396 3.40651439 56.27148396 0 61 C0 40.87 0 20.74 0 0 Z " fill="#FEFEFE" transform="translate(0,0)"/>
<path d="M0 0 C2.93689849 2.37399294 5.3923946 4.8385919 7.5 8 C7.5 8.66 7.5 9.32 7.5 10 C8.16 10.33 8.82 10.66 9.5 11 C8.7678125 11.34289062 8.035625 11.68578125 7.28125 12.0390625 C-3.85157318 17.41992704 -14.40866884 23.72140918 -25.06152344 29.98535156 C-30.65110238 33.26035905 -36.25710805 36.50629695 -41.87445068 39.73342896 C-43.11826196 40.44903836 -44.36099298 41.16652889 -45.6026001 41.88595581 C-47.34176553 42.89344825 -49.08486918 43.89413305 -50.828125 44.89453125 C-51.8274707 45.47050049 -52.82681641 46.04646973 -53.85644531 46.63989258 C-56.12746287 47.80832985 -58.0061469 48.53638013 -60.5 49 C-65.17235365 35.6921356 -66.0054764 26.23587985 -60.5 13 C-55.31032959 3.44837877 -47.61865663 -3.06160071 -37.5 -7 C-23.91244841 -10.49059515 -11.33634047 -8.04380041 0 0 Z " fill="#659AD1" transform="translate(131.5,87)"/>
<path d="M0 0 C3.05515314 1.22867465 5.89082278 2.59640573 8.78295898 4.16845703 C10.33756836 5.01150391 10.33756836 5.01150391 11.92358398 5.87158203 C12.99092773 6.45681641 14.05827148 7.04205078 15.15795898 7.64501953 C16.22530273 8.22251953 17.29264648 8.80001953 18.39233398 9.39501953 C23.46709116 12.15962605 28.43255875 14.93926867 33.15795898 18.27001953 C32.37061669 24.4824738 28.87467106 27.45025598 24.15795898 31.27001953 C13.90701903 37.62496361 3.3658658 39.8286837 -8.58813477 37.80517578 C-17.70628015 35.40117177 -26.03396081 29.71916395 -31.84204102 22.27001953 C-32.53210594 20.61290378 -33.20144819 18.9468806 -33.84204102 17.27001953 C-29.98817908 15.01949728 -26.1338969 12.7696957 -22.27954102 10.52001953 C-21.19350586 9.88580078 -20.1074707 9.25158203 -18.98852539 8.59814453 C-16.87783785 7.36637551 -14.76382816 6.14027825 -12.64624023 4.92041016 C-10.97774249 3.9384282 -9.32551231 2.92637804 -7.71362305 1.85400391 C-4.77422137 -0.07161569 -3.49097033 -0.89665847 0 0 Z " fill="#014382" transform="translate(105.842041015625,118.72998046875)"/>
</svg>
