<?xml version="1.0" encoding="UTF-8"?>
<svg version="1.1" xmlns="http://www.w3.org/2000/svg" width="225" height="225">
<path d="M0 0 C74.25 0 148.5 0 225 0 C225 74.25 225 148.5 225 225 C150.75 225 76.5 225 0 225 C0 150.75 0 76.5 0 0 Z " fill="#FDFDFD" transform="translate(0,0)"/>
<path d="M0 0 C52.47 0 104.94 0 159 0 C159 10.10369775 159 10.10369775 158.484375 14.60546875 C158.369729 15.64622559 158.25508301 16.68698242 158.13696289 17.75927734 C158.00926514 18.89059082 157.88156738 20.0219043 157.75 21.1875 C156.35969486 34.0702671 155.17356956 46.96529451 154.0625 59.875 C153.97892242 60.84426422 153.89534485 61.81352844 153.80923462 62.81216431 C152.84860076 73.9675752 151.9042187 85.12436083 150.9609375 96.28125 C150.70430068 99.31520311 150.44759248 102.34915015 150.19076538 105.38308716 C150.02271474 107.36832834 149.85476537 109.3535781 149.68692017 111.33883667 C148.22852102 128.56939316 146.66424301 145.7881227 145 163 C134.40172657 166.04880458 123.78264302 169.01294502 113.14111328 171.90771484 C107.34356789 173.49236245 101.56964898 175.10600525 95.83984375 176.921875 C79.22103541 182.15490224 79.22103541 182.15490224 70 179 C68.03524977 178.4676685 66.0702896 177.93605775 64.10302734 177.41308594 C61.80573786 176.79382973 59.51784807 176.14706669 57.23046875 175.4921875 C53.40437737 174.39689546 49.57318135 173.32186471 45.73828125 172.2578125 C44.65369629 171.95641357 43.56911133 171.65501465 42.45166016 171.34448242 C40.34086128 170.75797398 38.22987141 170.17215232 36.11865234 169.5871582 C28.70540344 167.51791153 21.3466897 165.29393758 14 163 C13.88930176 161.71649658 13.77860352 160.43299316 13.66455078 159.1105957 C13.2442596 154.24039763 12.82273372 149.370307 12.40087891 144.50024414 C12.2202159 142.41270709 12.03986544 140.32514296 11.85986328 138.23754883 C10.97687795 127.9993586 10.08493535 117.76311896 9.08984375 107.53515625 C8.09419014 97.26120125 7.20147362 86.9785927 6.30859375 76.6953125 C6.2331282 75.82697721 6.15766266 74.95864193 6.07991028 74.06399345 C5.37001033 65.8942376 4.66189112 57.72432826 3.95629883 49.55419922 C3.56660689 45.04298604 3.17502622 40.53194003 2.78227425 36.02099228 C2.63444126 34.31869616 2.48732729 32.61633744 2.34097099 30.91391373 C2.1372096 28.54417674 1.93104709 26.17465959 1.72436523 23.80517578 C1.66564743 23.11527557 1.60692963 22.42537537 1.5464325 21.71456909 C1.27635774 18.644021 0.93945415 15.61965988 0.45472717 12.57467651 C-0.07455563 8.41390731 0 4.19429859 0 0 Z " fill="#E44D26" transform="translate(33,44)"/>
<path d="M0 0 C33.33 0 66.66 0 101 0 C100.34 6.93 99.68 13.86 99 21 C73.92 21 48.84 21 23 21 C23.33 24.63 23.66 28.26 24 32 C24 34.97 24 37.94 24 41 C48.09 41 72.18 41 97 41 C96.67 44.96 96.34 48.92 96 53 C95.67488439 56.96347134 95.35049208 60.9269936 95.02734375 64.890625 C94.8962899 66.49656525 94.8962899 66.49656525 94.7625885 68.13494873 C94.48746258 71.50662463 94.2124787 74.87831209 93.9375 78.25 C93.74935841 80.55599035 93.56120745 82.86197994 93.37304688 85.16796875 C92.91525642 90.77863701 92.45758213 96.38931474 92 102 C90.74645134 102.48080816 89.49184627 102.95886254 88.23681641 103.43579102 C87.53827545 103.70230972 86.8397345 103.96882843 86.12002563 104.24342346 C82.9263164 105.38316698 79.67229424 106.15514811 76.375 106.9375 C69.92453869 108.48184845 63.60886332 110.26904798 57.28125 112.265625 C48.71165467 114.18358205 41.74981001 112.13483186 33.44580078 109.74682617 C31.50710823 109.18954328 29.56472198 108.64720951 27.62109375 108.10742188 C21.2962125 106.32507426 15.10180431 104.44226258 9 102 C8.65970492 98.52147832 8.3290613 95.04210091 8 91.5625 C7.90460938 90.58861328 7.80921875 89.61472656 7.7109375 88.61132812 C7.57558594 87.1659668 7.57558594 87.1659668 7.4375 85.69140625 C7.31181641 84.37958374 7.31181641 84.37958374 7.18359375 83.04125977 C6.94170503 79.03433448 7 75.01421977 7 71 C13.6 71 20.2 71 27 71 C27.68543143 75.11258859 28.11726187 78.32262138 28.0625 82.375 C28.05347656 83.24898438 28.04445313 84.12296875 28.03515625 85.0234375 C28.02355469 85.67570312 28.01195313 86.32796875 28 87 C28.94359375 87.18175781 28.94359375 87.18175781 29.90625 87.3671875 C34.01990832 88.17257241 38.08627756 88.99866306 42.125 90.125 C50.05104764 91.91475269 56.05962065 90.66489236 63.72094727 88.42333984 C67.01162323 87.46783135 69.52908156 87 73 87 C72.98839844 86.27296875 72.97679687 85.5459375 72.96484375 84.796875 C72.79093199 65.41813602 72.79093199 65.41813602 75 61 C52.23 61 29.46 61 6 61 C2.87990449 40.7193792 1.57570932 20.48422111 0 0 Z " fill="#FEFDFC" transform="translate(62,77)"/>
<path d="M0 0 C21.78 0 43.56 0 66 0 C65.67 3.63 65.34 7.26 65 11 C64.82182002 12.99879013 64.64454489 14.99766154 64.46887207 16.99667358 C64.37638687 18.04792419 64.28390167 19.0991748 64.18861389 20.18228149 C64.04207619 21.85041397 64.04207619 21.85041397 63.89257812 23.55224609 C63.67348876 26.04275749 63.45437128 28.53326641 63.23522949 31.02377319 C63.06319252 32.97938234 63.06319252 32.97938234 62.88768005 34.97449875 C62.21316126 42.63911194 61.53616824 50.30350724 60.85943127 57.96792483 C60.14482249 66.06132706 59.43110705 74.15480555 58.72021484 82.24853516 C58.15313838 88.70482181 57.58411553 95.16093351 57.01278067 101.61684477 C56.71119038 105.02552985 56.4105756 108.43429455 56.11231995 111.84327316 C55.77990972 115.6371199 55.44407444 119.43064879 55.10742188 123.22412109 C54.96088417 124.91047165 54.96088417 124.91047165 54.81138611 126.63088989 C54.71890091 127.66522156 54.62641571 128.69955322 54.53112793 129.76522827 C54.45223076 130.66075094 54.37333359 131.55627361 54.29204559 132.47893333 C53.99703965 135.02555504 53.53827603 137.49449595 53 140 C45.29644388 142.12876398 37.5922334 144.25513043 29.88694763 146.37762451 C26.75744836 147.23973714 23.62821819 148.10278582 20.49951172 148.96777344 C17.43781277 149.81418638 14.37528148 150.65751421 11.3125 151.5 C10.39388184 151.75475098 9.47526367 152.00950195 8.52880859 152.27197266 C7.69043457 152.50190918 6.85206055 152.7318457 5.98828125 152.96875 C5.26165283 153.16919922 4.53502441 153.36964844 3.78637695 153.57617188 C2 154 2 154 0 154 C0.00523682 153.43490723 0.01047363 152.86981445 0.01586914 152.28759766 C0.03662422 149.7334097 0.0496554 147.17923947 0.0625 144.625 C0.07087891 143.73554688 0.07925781 142.84609375 0.08789062 141.9296875 C0.09111328 141.07890625 0.09433594 140.228125 0.09765625 139.3515625 C0.10289307 138.56604004 0.10812988 137.78051758 0.11352539 136.97119141 C0.12573953 134.92227332 0.12573953 134.92227332 -1 133 C0.07636719 132.75765625 1.15273437 132.5153125 2.26171875 132.265625 C10.1393595 130.46680792 17.89800977 128.55255814 25.58203125 126.02734375 C30.67364973 124.49694871 35.83615874 123.26150427 41 122 C41.04567108 121.41277161 41.09134216 120.82554321 41.13839722 120.22052002 C41.61899522 114.05454508 42.10699973 107.88918679 42.59912109 101.72412109 C42.78132261 99.42967192 42.96169673 97.13507681 43.14013672 94.84033203 C43.39839651 91.52335288 43.66343771 88.20697125 43.9296875 84.890625 C44.04544632 83.37580536 44.04544632 83.37580536 44.1635437 81.8303833 C44.74112151 74.74823291 45.82227804 68.06633173 47 61 C22.91 61 -1.18 61 -26 61 C-27 52 -27 52 -27 41 C-1.92 41 23.16 41 49 41 C49 37.04 49 33.08 49 29 C49.99 24.545 49.99 24.545 51 20 C34.17 20 17.34 20 0 20 C0 13.4 0 6.8 0 0 Z " fill="#F06429" transform="translate(112,57)"/>
<path d="M0 0 C33.33 0 66.66 0 101 0 C100.34 6.93 99.68 13.86 99 21 C73.92 21 48.84 21 23 21 C23.33 24.63 23.66 28.26 24 32 C24 34.97 24 37.94 24 41 C32.58 41 41.16 41 50 41 C50 47.6 50 54.2 50 61 C35.48 61 20.96 61 6 61 C2.87990449 40.7193792 1.57570932 20.48422111 0 0 Z " fill="#EBE5E3" transform="translate(62,77)"/>
<path d="M0 0 C6.6 0 13.2 0 20 0 C20.68543143 4.11258859 21.11726187 7.32262138 21.0625 11.375 C21.05347656 12.24898437 21.04445313 13.12296875 21.03515625 14.0234375 C21.02355469 14.67570313 21.01195313 15.32796875 21 16 C21.83917969 16.16435547 21.83917969 16.16435547 22.6953125 16.33203125 C30.14804345 17.8058028 37.57453495 19.3950724 45 21 C44.01 21.495 44.01 21.495 43 22 C43 28.6 43 35.2 43 42 C37.9365303 41.36706629 33.8042809 40.82129386 29.03125 39.4765625 C27.96519531 39.1775 26.89914063 38.8784375 25.80078125 38.5703125 C24.71152344 38.25835937 23.62226562 37.94640625 22.5 37.625 C21.41074219 37.32078125 20.32148437 37.0165625 19.19921875 36.703125 C13.34900962 35.04780585 7.65386008 33.2368427 2 31 C1.65970492 27.52147832 1.3290613 24.04210091 1 20.5625 C0.90460938 19.58861328 0.80921875 18.61472656 0.7109375 17.61132812 C0.62070313 16.64775391 0.53046875 15.68417969 0.4375 14.69140625 C0.35371094 13.81685791 0.26992187 12.94230957 0.18359375 12.04125977 C-0.05829497 8.03433448 0 4.01421977 0 0 Z " fill="#EAE8E8" transform="translate(69,148)"/>
<path d="M0 0 C16.5 0 33 0 50 0 C49.67 6.27 49.34 12.54 49 19 C32.83 19 16.66 19 0 19 C0 12.73 0 6.46 0 0 Z " fill="#FEFEFE" transform="translate(112,78)"/>
<path d="M0 0 C11.22 0 22.44 0 34 0 C34 9.9 34 19.8 34 30 C30.7 30 27.4 30 24 30 C23.67 26.04 23.34 22.08 23 18 C21.35 20.31 19.7 22.62 18 25 C13.60841671 23.5361389 13.12052567 21.02168662 11 17 C10.67 21.29 10.34 25.58 10 30 C6.7 30 3.4 30 0 30 C0 20.1 0 10.2 0 0 Z " fill="#010101" transform="translate(114,0)"/>
<path d="M0 0 C9.57 0 19.14 0 29 0 C29 9.9 29 19.8 29 30 C25.7 30 22.4 30 19 30 C19 26.7 19 23.4 19 20 C16.03 20 13.06 20 10 20 C10 23.3 10 26.6 10 30 C6.7 30 3.4 30 0 30 C0 20.1 0 10.2 0 0 Z " fill="#020202" transform="translate(48,0)"/>
<path d="M0 0 C8.25 0 16.5 0 25 0 C24.34 8.25 23.68 16.5 23 25 C19.761875 25.845625 16.52375 26.69125 13.1875 27.5625 C12.17067139 27.83263916 11.15384277 28.10277832 10.10620117 28.38110352 C9.30158447 28.58662842 8.49696777 28.79215332 7.66796875 29.00390625 C6.43469849 29.32597046 6.43469849 29.32597046 5.17651367 29.65454102 C3 30 3 30 0 29 C0 19.43 0 9.86 0 0 Z " fill="#F06428" transform="translate(112,139)"/>
<path d="M0 0 C8.91 0 17.82 0 27 0 C27 6.27 27 12.54 27 19 C18.42 19 9.84 19 1 19 C0 11 0 11 0 0 Z " fill="#E44C24" transform="translate(85,98)"/>
<path d="M0 0 C8.91 0 17.82 0 27 0 C27 3.3 27 6.6 27 10 C24.36 10 21.72 10 19 10 C19 16.6 19 23.2 19 30 C15.7 30 12.4 30 9 30 C9 23.4 9 16.8 9 10 C6.03 10 3.06 10 0 10 C0 6.7 0 3.4 0 0 Z " fill="#040404" transform="translate(82,0)"/>
<path d="M0 0 C2.97 0 5.94 0 9 0 C9 6.93 9 13.86 9 21 C13.62 21 18.24 21 23 21 C23 23.97 23 26.94 23 30 C15.41 30 7.82 30 0 30 C0 20.1 0 10.2 0 0 Z " fill="#000000" transform="translate(154,0)"/>
<path d="M0 0 C2.97 0 5.94 0 9 0 C9 3.3 9 6.6 9 10 C6.03 10 3.06 10 0 10 C0 6.7 0 3.4 0 0 Z " fill="#FFFFFF" transform="translate(58,0)"/>
<path d="M0 0 C3.96 0 7.92 0 12 0 C10.51755092 3.70612271 9.22884794 6.74959675 7 10 C6.34 10 5.68 10 5 10 C3.7109375 8.3203125 3.7109375 8.3203125 2.375 6.125 C1.92898437 5.40570312 1.48296875 4.68640625 1.0234375 3.9453125 C0 2 0 2 0 0 Z " fill="#F4F4F4" transform="translate(125,0)"/>
</svg>
